<?xml version="1.0" encoding="utf-8"?>
<!-- Generator: Adobe Illustrator 16.0.0, SVG Export Plug-In . SVG Version: 6.00 Build 0)  -->
<!DOCTYPE svg PUBLIC "-//W3C//DTD SVG 1.1//EN" "http://www.w3.org/Graphics/SVG/1.1/DTD/svg11.dtd">
<svg version="1.1" id="Capa_1"
  xmlns="http://www.w3.org/2000/svg"
  xmlns:xlink="http://www.w3.org/1999/xlink" x="0px" y="0px" width="200px" height="200px" viewBox="0 0 200 200" enable-background="new 0 0 200 200" xml:space="preserve">
  <path fill-rule="evenodd" clip-rule="evenodd" fill="#333333" d="M30.269,192.139c0-16.506,0-33.012,0-49.612
	c-1.638-0.256-3.123-0.41-4.575-0.725C13.838,139.24,5.35,129.106,5.291,116.815c-0.134-28.114-0.166-56.23,0.012-84.345
	C5.392,18.386,16.836,7.56,31.219,7.533c27.409-0.053,54.818-0.017,82.224-0.019c18.293,0,36.586-0.032,54.879,0.015
	c12.981,0.035,23.372,8.52,25.963,21.139c0.34,1.65,0.504,3.367,0.505,5.054c0.031,27.298,0.044,54.594,0.012,81.891
	c-0.017,12.657-8.277,23.026-20.479,25.721c-2.005,0.441-4.108,0.595-6.169,0.599c-28.477,0.038-56.953,0.035-85.43,0.001
	c-1.293-0.001-2.203,0.351-3.125,1.277c-15.796,15.86-31.628,31.683-47.441,47.526c-0.519,0.52-0.905,1.171-1.354,1.759
	C30.625,192.379,30.448,192.258,30.269,192.139z M42.296,163.591c0.876-0.836,1.378-1.297,1.859-1.778
	c10.046-10.048,20.105-20.084,30.112-30.171c1.02-1.027,2.038-1.4,3.457-1.398c29.855,0.036,59.711,0.029,89.566,0.021
	c1.13,0,2.277,0.014,3.383-0.171c7.389-1.238,12.061-7.22,12.063-15.456c0.013-26.853,0.013-53.706-0.001-80.561
	c-0.004-8.745-5.656-14.468-14.357-14.471c-45.569-0.018-91.137-0.018-136.707,0c-8.758,0.003-14.35,5.668-14.355,14.427
	c-0.006,10.626-0.003,21.253-0.003,31.88c0,16.603-0.01,33.207,0.003,49.808c0.005,6.238,2.563,10.984,8.46,13.432
	c1.798,0.746,3.89,0.978,5.866,1.07c3.493,0.166,6.998,0.048,10.654,0.048C42.296,141.366,42.296,152.221,42.296,163.591z
	 M68.459,74.665c-0.023-7.328-6.033-13.248-13.392-13.195c-7.297,0.053-13.149,5.912-13.187,13.199
	c-0.037,7.299,5.986,13.341,13.287,13.328C62.492,87.984,68.485,81.973,68.459,74.665z M131.19,74.683
	c-0.02,7.221,5.905,13.232,13.121,13.314c7.334,0.079,13.364-5.818,13.46-13.158c0.089-7.329-5.833-13.326-13.209-13.37
	C137.21,61.426,131.211,67.355,131.19,74.683z M99.839,61.473c-7.323-0.007-13.199,5.794-13.253,13.087
	c-0.055,7.396,5.805,13.393,13.128,13.438c7.36,0.046,13.33-5.864,13.353-13.22C113.091,67.368,107.238,61.481,99.839,61.473z"/>
</svg>
