<?xml version="1.0" encoding="utf-8"?>
<!-- Generator: Adobe Illustrator 16.0.0, SVG Export Plug-In . SVG Version: 6.00 Build 0)  -->
<!DOCTYPE svg PUBLIC "-//W3C//DTD SVG 1.1//EN" "http://www.w3.org/Graphics/SVG/1.1/DTD/svg11.dtd">
<svg version="1.1" id="Capa_1" xmlns="http://www.w3.org/2000/svg" xmlns:xlink="http://www.w3.org/1999/xlink" x="0px" y="0px"
	 width="600px" height="200px" viewBox="0 0 600 200" enable-background="new 0 0 600 200" xml:space="preserve">
<path fill="#FFFFFF" d="M51.252,74.061v15.729h25.598v9.549H51.252v24.473H38.091V71.17c0-4.333,2.809-7.061,7.543-7.061h33.624
	v9.951H51.252z M112.166,124.455c-17.254,0-28.729-10.992-28.729-30.333c0-19.339,11.876-30.414,29.13-30.414
	c17.253,0,28.729,10.993,28.729,30.414C141.295,113.702,129.499,124.455,112.166,124.455z M112.166,73.417
	c-9.871,0-15.487,7.463-15.487,20.704c0,13.321,5.937,20.785,15.888,20.785c9.791,0,15.487-7.384,15.487-20.785
	C128.054,80.881,122.116,73.417,112.166,73.417z M185.679,64.109h13.161v37.877c0,14.284-8.747,22.871-24.877,22.871
	c-16.129,0-24.796-8.507-24.796-22.871V64.109h13.16v38.278c0,7.542,3.932,11.556,11.636,11.556s11.716-4.014,11.716-11.556V64.109
	L185.679,64.109z M243.622,123.812l-9.31-21.987h-13.16v21.987h-13.08V71.091c0-4.173,2.889-6.982,7.463-6.982h20.543
	c11.555,0,18.538,6.099,18.538,17.253c0,4.894-2.086,8.908-4.896,12.357l-3.692,4.495l11.395,25.598H243.622L243.622,123.812z
	 M234.072,73.579h-12.92v18.777h15.488l2.408-3.209c1.604-2.168,2.967-4.575,2.967-7.464
	C242.017,76.869,239.689,73.579,234.072,73.579z M284.475,123.812V64.109h13.243v59.704h-13.243V123.812z M318.741,123.812h-11.396
	V71.733c0-5.377,3.452-8.186,9.229-8.186c4.734,0,7.463,2.408,9.228,5.537l20.865,36.915v-41.89h11.475v52.081
	c0,5.295-3.45,8.104-9.229,8.104c-4.651,0-7.302-2.407-9.066-5.457l-21.105-36.994L318.741,123.812L318.741,123.812z
	 M396.106,123.812c-4.734,0-7.542-2.647-7.542-6.981V64.109h13.24v49.032h26.884v10.672h-32.582V123.812z M436.477,123.812V64.109
	h13.242v59.704h-13.242V123.812z M470.743,123.812h-11.396V71.733c0-5.377,3.45-8.186,9.228-8.186c4.736,0,7.465,2.408,9.229,5.537
	l20.864,36.915v-41.89h11.476v52.081c0,5.295-3.449,8.104-9.229,8.104c-4.654,0-7.301-2.407-9.067-5.457l-21.104-36.994
	L470.743,123.812L470.743,123.812z M527.324,123.812c-4.736,0-7.544-2.647-7.544-6.981V71.17c0-4.333,2.808-7.062,7.544-7.062
	h34.426v9.871h-28.891v14.687h25.279v9.468h-25.279v15.887h29.051v9.79H527.324z M512.788,130.91c0,1.333-0.759,2.17-2.037,2.17
	c-0.388,0-0.791-0.039-1.333-0.193c-0.364-0.109-0.526-0.303-0.526-0.667v-4.982c0.355-0.062,0.712-0.124,1.061-0.194v1.891
	c0.311-0.101,0.689-0.17,0.969-0.17C512.208,128.766,512.788,129.531,512.788,130.91z M509.952,129.779v2.34
	c0.426,0.092,0.565,0.108,0.752,0.108c0.728,0,1.03-0.512,1.03-1.302c0-0.821-0.278-1.294-0.991-1.294
	C510.572,129.632,510.363,129.656,509.952,129.779z M513.365,134.281l0.131-0.806c0.303,0.086,0.52,0.139,0.744,0.139
	c0.356,0,0.458-0.162,0.519-0.372l0.056-0.177l-1.665-4.277h1.185l1,3.036l0.867-3.036h1.125l-1.458,4.36
	c-0.286,0.854-0.643,1.303-1.511,1.303C514.04,134.451,513.761,134.397,513.365,134.281z M523.557,133.142l-0.372-0.209
	c-0.193-0.108-0.395-0.117-0.62-0.062l-0.255,0.062c-0.349,0.085-0.782,0.155-1.085,0.155c-0.93,0-1.487-0.458-1.487-1.232
	c0-1.107,0.945-1.325,2.015-1.325h0.712v-0.285c0-0.473-0.302-0.636-0.751-0.636c-0.341,0-0.806,0.085-1.263,0.224l-0.425,0.132
	l-0.141-0.837l0.395-0.123c0.543-0.171,1.055-0.264,1.542-0.264c0.953,0,1.658,0.394,1.658,1.464v1.952l0.472,0.286L523.557,133.142
	z M522.472,131.259h-0.907c-0.488,0-0.782,0.155-0.782,0.558c0,0.342,0.24,0.504,0.644,0.504c0.178,0,0.441-0.031,0.722-0.109
	l0.323-0.085L522.472,131.259L522.472,131.259z M528.311,127.044v5.176c0,0.364-0.164,0.566-0.527,0.667
	c-0.574,0.162-0.969,0.193-1.35,0.193c-1.278,0-2.021-0.782-2.021-2.146c0-1.371,0.649-2.168,1.905-2.168
	c0.303,0,0.605,0.076,0.93,0.169v-1.696C527.598,127.176,527.953,127.114,528.311,127.044z M525.466,130.926
	c0,0.797,0.304,1.302,1.031,1.302c0.217,0,0.379-0.023,0.751-0.108v-2.34c-0.433-0.116-0.618-0.14-0.79-0.147
	C525.745,129.632,525.466,130.104,525.466,130.926z M531.6,129.64c-0.535,0-0.961,0.039-1.355,0.147v3.254h-1.054v-3.409
	c0-0.38,0.187-0.573,0.541-0.674c0.559-0.154,1.04-0.202,1.868-0.202V129.64z M532.713,128.237c-0.389,0-0.612-0.224-0.612-0.58
	c0-0.35,0.226-0.574,0.612-0.574s0.611,0.225,0.611,0.574C533.325,128.014,533.1,128.237,532.713,128.237z M532.186,133.041v-4.253
	h1.055v4.253H532.186z M537.84,133.142l-0.372-0.209c-0.193-0.108-0.394-0.117-0.619-0.062l-0.255,0.062
	c-0.351,0.085-0.783,0.155-1.086,0.155c-0.93,0-1.487-0.458-1.487-1.232c0-1.107,0.945-1.325,2.016-1.325h0.712v-0.285
	c0-0.473-0.302-0.636-0.751-0.636c-0.343,0-0.806,0.085-1.263,0.224l-0.427,0.132l-0.14-0.837l0.396-0.123
	c0.542-0.171,1.054-0.264,1.542-0.264c0.952,0,1.657,0.394,1.657,1.464v1.952l0.472,0.286L537.84,133.142z M536.755,131.259h-0.906
	c-0.489,0-0.783,0.155-0.783,0.558c0,0.342,0.241,0.504,0.644,0.504c0.179,0,0.441-0.031,0.722-0.109l0.324-0.085V131.259
	L536.755,131.259z M539.905,133.041h-1.076v-3.425c0-0.372,0.186-0.566,0.542-0.667c0.588-0.162,1.007-0.201,1.379-0.201
	c1.239,0,1.728,0.636,1.728,1.526v2.766h-1.062v-2.674c0-0.394-0.171-0.705-0.721-0.705c-0.187,0-0.38,0.017-0.791,0.125
	L539.905,133.041L539.905,133.041z M547.779,129.64c-0.535,0-0.961,0.039-1.355,0.147v3.254h-1.054v-3.409
	c0-0.38,0.186-0.573,0.541-0.674c0.558-0.154,1.039-0.202,1.868-0.202V129.64z M548.894,128.237c-0.389,0-0.612-0.224-0.612-0.58
	c0-0.35,0.225-0.574,0.612-0.574c0.386,0,0.611,0.225,0.611,0.574C549.506,128.014,549.28,128.237,548.894,128.237z
	 M548.366,133.041v-4.253h1.055v4.253H548.366z M552.208,128.732c1.177,0,1.945,0.667,1.945,2.085c0,0.302-0.14,0.449-0.449,0.449
	h-2.458c0.056,0.658,0.504,0.961,1.147,0.961c0.349,0,0.697-0.055,1.154-0.193l0.411-0.133l0.14,0.807l-0.411,0.132
	c-0.535,0.169-0.922,0.247-1.371,0.247c-1.271,0-2.115-0.722-2.115-2.163C550.201,129.408,551.13,128.732,552.208,128.732z
	 M552.177,129.509c-0.558,0-0.899,0.395-0.938,1.029h1.875C553.113,129.973,552.835,129.509,552.177,129.509z M557.271,129.64
	c-0.535,0-0.961,0.039-1.355,0.147v3.254h-1.054v-3.409c0-0.38,0.186-0.573,0.541-0.674c0.558-0.154,1.039-0.202,1.868-0.202V129.64
	z M561.514,133.142l-0.371-0.209c-0.193-0.108-0.395-0.117-0.62-0.062l-0.255,0.062c-0.35,0.085-0.783,0.155-1.085,0.155
	c-0.93,0-1.487-0.458-1.487-1.232c0-1.107,0.945-1.325,2.016-1.325h0.712v-0.285c0-0.473-0.303-0.636-0.751-0.636
	c-0.343,0-0.807,0.085-1.263,0.224l-0.427,0.132l-0.14-0.837l0.396-0.123c0.542-0.171,1.054-0.264,1.541-0.264
	c0.952,0,1.657,0.394,1.657,1.464v1.952l0.473,0.286L561.514,133.142z M560.43,131.259h-0.907c-0.488,0-0.782,0.155-0.782,0.558
	c0,0.342,0.241,0.504,0.644,0.504c0.179,0,0.441-0.031,0.721-0.109l0.325-0.085V131.259L560.43,131.259z"/>
</svg>
